<?xml version="1.0" standalone="no"?>
<!DOCTYPE svg PUBLIC "-//W3C//DTD SVG 20010904//EN"
 "http://www.w3.org/TR/2001/REC-SVG-20010904/DTD/svg10.dtd">
<svg version="1.0" xmlns="http://www.w3.org/2000/svg"
 width="1004.000000pt" height="1024.000000pt" viewBox="0 0 1004.000000 1024.000000"
 preserveAspectRatio="xMidYMid meet">
<g transform="translate(0.000000,1024.000000) scale(0.100000,-0.100000)"
fill="#000000" stroke="none">
<path d="M5873 10230 c-34 -5 -71 -13 -82 -19 -11 -6 -29 -11 -40 -11 -12 0
-21 -4 -21 -10 0 -5 -9 -10 -19 -10 -11 0 -21 -3 -23 -7 -1 -5 -34 -23 -71
-42 -38 -18 -79 -44 -92 -57 -13 -13 -27 -24 -29 -24 -8 0 -56 -41 -80 -69
-12 -13 -31 -34 -43 -47 -13 -13 -23 -26 -23 -29 0 -3 -11 -18 -25 -33 -14
-15 -31 -39 -38 -54 -6 -16 -15 -28 -19 -28 -5 0 -8 -7 -8 -15 0 -8 -4 -15
-10 -15 -5 0 -10 -9 -10 -20 0 -11 -4 -20 -10 -20 -5 0 -12 -16 -16 -35 -3
-19 -10 -35 -15 -35 -5 0 -9 -9 -9 -20 0 -11 -4 -20 -10 -20 -5 0 -10 -11 -10
-25 0 -14 -4 -25 -10 -25 -5 0 -10 -15 -10 -33 0 -18 -4 -37 -10 -43 -5 -5
-13 -45 -16 -87 -4 -43 -11 -80 -15 -83 -5 -3 -9 -32 -9 -65 l0 -59 -65 0
c-37 0 -65 -4 -65 -10 0 -5 -18 -10 -40 -10 -22 0 -48 -4 -58 -9 -9 -6 -34
-13 -54 -16 -21 -3 -38 -10 -38 -15 0 -6 -9 -10 -20 -10 -24 0 -58 -18 -81
-42 -9 -10 -24 -18 -33 -18 -9 0 -16 -4 -16 -9 0 -5 -9 -12 -19 -16 -20 -6
-181 -160 -181 -173 0 -4 -11 -19 -25 -34 -14 -15 -25 -32 -25 -38 0 -5 -4
-10 -10 -10 -5 0 -10 -9 -10 -21 0 -11 -4 -17 -10 -14 -5 3 -10 0 -10 -7 0
-16 -52 -122 -62 -126 -5 -2 -8 -15 -8 -28 0 -13 -4 -24 -10 -24 -5 0 -10 -8
-10 -19 0 -10 -7 -35 -15 -54 -8 -20 -15 -48 -15 -62 0 -14 -4 -25 -10 -25 -5
0 -10 -18 -10 -40 0 -22 -4 -40 -10 -40 -5 0 -10 -23 -10 -51 0 -27 -4 -48 -8
-45 -5 3 -14 -95 -21 -217 -10 -168 -10 -261 -2 -382 6 -88 11 -208 11 -267 0
-65 4 -108 10 -108 6 0 10 -34 10 -81 0 -51 4 -78 10 -74 6 4 10 -22 10 -69 0
-42 4 -76 9 -76 4 0 11 -46 15 -102 4 -57 11 -123 16 -148 5 -25 9 -66 10 -92
0 -27 5 -48 10 -48 6 0 10 -16 10 -35 0 -19 5 -35 10 -35 6 0 10 -11 10 -25 0
-14 5 -25 10 -25 6 0 10 -8 10 -17 0 -9 7 -24 16 -34 15 -17 15 -21 0 -59 -22
-55 -23 -275 -1 -327 8 -19 15 -44 15 -54 0 -11 5 -19 10 -19 6 0 10 -6 10
-13 0 -7 9 -19 20 -27 11 -8 20 -21 20 -29 0 -13 113 -131 125 -131 3 0 15 -9
27 -20 11 -10 34 -22 49 -25 16 -4 29 -11 29 -16 0 -5 9 -9 20 -9 11 0 20 -4
20 -10 0 -5 11 -10 24 -10 14 0 28 -4 31 -10 3 -5 19 -10 34 -10 15 0 31 -4
37 -10 5 -5 45 -10 89 -12 74 -3 80 -5 83 -25 2 -13 8 -23 13 -23 5 0 9 -7 9
-15 0 -8 5 -15 10 -15 6 0 10 -7 10 -14 0 -8 11 -36 25 -62 14 -26 25 -53 25
-61 0 -8 5 -11 10 -8 6 3 10 -1 10 -9 0 -9 5 -16 10 -16 6 0 10 -7 10 -15 0
-8 4 -15 9 -15 5 0 12 -11 15 -25 4 -14 11 -25 16 -25 6 0 10 -7 10 -15 0 -8
5 -15 10 -15 6 0 10 -5 10 -10 0 -6 11 -22 25 -36 14 -14 25 -29 25 -35 0 -14
279 -289 293 -289 7 0 19 -9 27 -20 8 -11 18 -20 23 -20 5 0 15 -6 22 -12 35
-32 45 -38 60 -38 8 0 15 -4 15 -10 0 -5 6 -10 13 -10 7 0 19 -9 27 -20 8 -11
21 -20 30 -20 8 0 24 -7 34 -15 11 -8 28 -15 38 -15 10 0 18 -4 18 -8 0 -5 16
-14 35 -22 19 -8 35 -17 35 -22 0 -4 9 -8 19 -8 11 0 22 -4 25 -9 3 -5 22 -12
42 -16 20 -3 45 -11 55 -16 11 -5 28 -13 39 -19 11 -5 31 -10 44 -10 14 0 28
-4 31 -10 3 -5 21 -10 40 -10 19 0 37 -5 40 -10 4 -6 11 -8 16 -5 5 4 9 1 9
-4 0 -7 -61 -11 -184 -11 -113 0 -187 -4 -191 -10 -3 -6 -24 -10 -46 -10 -21
0 -47 -4 -57 -10 -9 -5 -43 -12 -74 -15 -32 -4 -58 -11 -58 -16 0 -5 -16 -9
-35 -9 -19 0 -35 -4 -35 -10 0 -5 -9 -10 -19 -10 -11 0 -23 -4 -26 -10 -3 -5
-15 -10 -26 -10 -10 0 -19 -4 -19 -9 0 -5 -18 -12 -40 -16 -22 -4 -42 -11 -46
-16 -3 -5 -14 -9 -25 -9 -10 0 -19 -4 -19 -10 0 -5 -7 -10 -15 -10 -8 0 -15
-4 -15 -9 0 -5 -20 -17 -45 -28 -25 -10 -45 -21 -45 -25 0 -5 -8 -8 -18 -8
-10 0 -24 -9 -32 -20 -8 -11 -18 -20 -22 -20 -9 0 -66 -38 -114 -77 -54 -42
-274 -262 -274 -273 0 -5 -15 -24 -32 -43 -36 -36 -49 -55 -74 -104 -9 -18
-20 -33 -25 -33 -5 0 -9 -7 -9 -15 0 -8 -3 -15 -7 -15 -5 0 -21 -29 -38 -65
-16 -36 -33 -65 -37 -65 -5 0 -8 -12 -8 -26 0 -14 -4 -23 -10 -19 -5 3 -10 -3
-10 -13 0 -11 -7 -33 -15 -48 -8 -16 -15 -37 -15 -46 0 -9 -4 -20 -10 -23 -6
-3 -10 -17 -10 -31 0 -13 -4 -24 -10 -24 -5 0 -10 -14 -10 -31 0 -16 -4 -28
-9 -25 -5 3 -11 -9 -14 -27 -9 -53 -31 -135 -40 -143 -4 -4 -7 -20 -7 -36 0
-15 -4 -28 -10 -28 -5 0 -10 -14 -10 -31 0 -17 -4 -28 -10 -24 -6 3 -10 -4
-10 -18 0 -14 -7 -44 -15 -67 -8 -23 -15 -53 -15 -66 0 -13 -4 -24 -10 -24 -5
0 -10 -13 -10 -30 0 -16 -4 -30 -10 -30 -5 0 -10 -14 -10 -31 0 -16 -4 -28 -9
-25 -5 3 -11 -11 -14 -32 -10 -65 -31 -142 -39 -142 -4 0 -8 -13 -8 -30 0 -16
-4 -30 -10 -30 -5 0 -10 -13 -10 -30 0 -16 -4 -30 -9 -30 -5 0 -11 -15 -14
-32 -8 -57 -31 -138 -39 -138 -5 0 -8 -13 -8 -30 0 -16 -4 -30 -10 -30 -5 0
-10 -16 -10 -36 0 -21 -4 -33 -10 -29 -6 3 -10 -5 -10 -18 0 -26 -26 -121 -41
-149 -5 -10 -9 -29 -9 -43 0 -14 -4 -25 -10 -25 -5 0 -10 -14 -10 -32 0 -17
-3 -28 -7 -24 -7 6 -26 -64 -40 -141 -3 -18 -9 -33 -14 -33 -5 0 -9 -13 -9
-30 0 -16 -4 -30 -10 -30 -6 0 -10 -47 -10 -120 0 -73 4 -120 10 -120 6 0 10
-8 10 -17 0 -20 51 -126 63 -131 4 -2 7 -8 7 -13 0 -10 84 -99 94 -99 4 0 17
-9 29 -21 12 -11 34 -23 50 -26 15 -3 27 -9 27 -14 0 -5 11 -9 24 -9 14 0 28
-4 31 -10 4 -6 61 -10 140 -10 73 0 140 -3 149 -6 11 -4 16 -19 16 -50 0 -24
5 -44 10 -44 6 0 10 -8 10 -18 0 -10 6 -26 14 -37 14 -20 7 -20 -900 -20 -503
0 -914 2 -914 5 0 3 9 12 20 20 11 8 20 18 20 23 0 5 6 15 13 22 31 35 37 45
37 60 0 8 5 15 10 15 6 0 10 7 10 15 0 8 5 15 10 15 6 0 10 9 10 20 0 11 4 20
9 20 5 0 12 28 16 63 4 34 12 74 18 88 10 26 13 26 125 31 64 3 118 10 125 17
6 6 19 11 29 11 10 0 18 5 18 10 0 6 9 10 20 10 11 0 20 5 20 10 0 6 7 10 15
10 8 0 15 4 15 9 0 5 8 12 18 15 24 8 92 71 92 85 0 6 5 11 10 11 6 0 10 7 10
15 0 8 4 15 10 15 5 0 12 11 16 25 3 14 10 25 15 25 5 0 9 9 9 20 0 11 5 20
10 20 6 0 10 12 10 26 0 14 4 23 10 19 6 -4 10 13 10 44 0 28 5 51 10 51 6 0
10 27 10 60 0 33 -4 60 -10 60 -5 0 -10 20 -10 45 0 25 -4 45 -10 45 -5 0 -10
11 -10 25 0 14 -4 25 -10 25 -5 0 -10 9 -10 20 0 11 -4 20 -10 20 -5 0 -10 9
-10 19 0 11 -7 26 -15 35 -8 8 -15 17 -15 21 0 17 -127 125 -147 125 -7 0 -13
5 -13 10 0 6 -9 10 -20 10 -11 0 -20 5 -20 10 0 6 -9 10 -20 10 -11 0 -20 5
-20 10 0 6 -16 10 -35 10 -19 0 -35 5 -35 10 0 6 -37 10 -90 10 l-90 0 0 63
c0 51 -4 67 -24 89 l-23 28 -800 0 -800 0 -22 -24 -22 -23 3 -643 c2 -504 6
-644 16 -648 6 -2 12 -17 12 -33 0 -16 5 -29 10 -29 6 0 10 -9 10 -20 0 -11 5
-20 10 -20 6 0 10 -7 10 -15 0 -8 4 -15 9 -15 5 0 12 -11 15 -25 4 -14 11 -25
16 -25 6 0 10 -5 10 -11 0 -6 14 -24 30 -39 17 -15 30 -30 30 -32 0 -1 -249
-3 -552 -3 -520 0 -658 -6 -658 -26 0 -5 -9 -9 -20 -9 -12 0 -31 -9 -43 -19
-77 -68 -117 -108 -117 -118 0 -7 -4 -13 -10 -13 -5 0 -10 -9 -10 -20 0 -11
-4 -20 -9 -20 -16 0 -31 -87 -31 -175 0 -88 15 -175 31 -175 5 0 9 -9 9 -20 0
-11 5 -20 10 -20 6 0 10 -4 10 -10 0 -5 16 -27 35 -47 19 -20 35 -40 35 -44 0
-7 66 -41 76 -39 4 1 10 -4 15 -12 12 -20 9586 -20 9598 0 5 8 11 13 15 13 13
-3 72 33 84 51 8 10 25 30 38 43 13 13 24 29 24 35 0 5 5 10 10 10 6 0 10 9
10 20 0 11 4 20 8 20 15 0 32 91 32 176 0 87 -16 174 -31 174 -5 0 -9 9 -9 20
0 11 -4 20 -10 20 -5 0 -10 6 -10 13 0 10 -40 50 -117 118 -12 10 -31 19 -43
19 -11 0 -20 4 -20 9 0 20 -137 26 -637 26 -293 0 -533 3 -533 8 0 4 5 7 10 7
6 0 10 9 10 19 0 11 5 21 10 23 6 2 14 29 17 61 l6 57 153 0 c96 0 154 4 154
10 0 6 11 10 25 10 14 0 25 5 25 10 0 6 7 10 15 10 21 0 86 36 78 44 -3 3 2 6
12 6 16 0 65 46 65 62 0 4 11 18 25 32 14 14 25 30 25 36 0 5 5 10 10 10 6 0
10 7 10 15 0 8 4 15 9 15 6 0 13 20 17 45 3 25 10 45 15 45 12 0 12 217 0 224
-5 3 -12 33 -16 66 -4 33 -11 60 -16 60 -5 0 -9 14 -9 30 0 17 -4 30 -10 30
-5 0 -10 14 -10 30 0 17 -4 30 -10 30 -5 0 -10 14 -10 30 0 17 -4 30 -9 30 -5
0 -13 25 -16 55 -4 30 -11 55 -16 55 -5 0 -9 16 -9 35 0 19 -4 35 -10 35 -5 0
-10 14 -10 30 0 17 -4 30 -10 30 -5 0 -10 11 -10 24 0 14 -4 27 -9 31 -5 3
-13 30 -16 60 -4 30 -11 55 -16 55 -5 0 -9 14 -9 30 0 17 -4 30 -10 30 -5 0
-10 14 -10 30 0 17 -4 30 -10 30 -5 0 -10 13 -10 29 0 17 -4 32 -9 35 -5 4
-12 29 -16 56 -4 28 -11 50 -16 50 -5 0 -9 16 -9 36 0 21 -4 33 -10 29 -6 -4
-10 6 -10 24 0 16 -4 33 -10 36 -5 3 -10 17 -10 30 0 13 -4 26 -9 29 -5 4 -12
29 -16 56 -4 27 -11 52 -16 56 -5 3 -9 18 -9 35 0 16 -4 29 -10 29 -5 0 -10
14 -10 30 0 17 -4 30 -10 30 -5 0 -10 11 -10 25 0 14 -4 25 -9 25 -5 0 -12 27
-16 60 -4 33 -11 60 -16 60 -5 0 -9 14 -9 30 0 17 -4 30 -10 30 -5 0 -10 14
-10 30 0 17 -4 30 -10 30 -5 0 -10 11 -10 24 0 14 -4 27 -9 31 -6 3 -13 26
-17 50 -3 25 -10 45 -15 45 -5 0 -9 11 -9 25 0 14 -4 25 -10 25 -5 0 -10 9
-10 20 0 11 -4 20 -10 20 -5 0 -10 6 -10 12 0 16 -53 122 -62 126 -5 2 -8 10
-8 18 0 8 -4 14 -9 14 -5 0 -11 8 -14 17 -12 35 -54 102 -61 96 -3 -3 -6 1 -6
10 0 9 -3 17 -7 17 -5 0 -19 17 -33 37 -30 43 -105 127 -170 188 -6 6 -18 19
-28 31 -9 11 -35 33 -57 50 -22 16 -53 41 -69 57 -16 15 -32 27 -36 27 -4 0
-20 11 -36 25 -16 14 -35 25 -41 25 -7 0 -13 4 -13 8 0 4 -20 16 -45 26 -25
11 -45 23 -45 28 0 4 -7 8 -15 8 -8 0 -15 5 -15 10 0 6 -9 10 -20 10 -11 0
-20 5 -20 10 0 6 -9 10 -20 10 -11 0 -20 5 -20 10 0 6 -10 10 -22 10 -18 0
-90 29 -150 61 -10 5 -31 9 -48 9 -16 0 -30 4 -30 9 0 9 -91 27 -182 38 -27 3
-48 9 -48 14 0 5 -84 9 -190 9 -132 0 -190 3 -190 11 0 6 7 9 15 6 8 -4 17 -2
20 3 4 6 22 10 41 10 19 0 34 5 34 10 0 6 14 10 30 10 17 0 30 5 30 10 0 6 11
10 24 10 14 0 27 4 30 9 3 5 23 12 43 15 46 9 93 28 93 38 0 5 9 8 20 8 11 0
20 5 20 10 0 6 7 10 15 10 8 0 15 5 15 10 0 6 7 10 16 10 23 0 86 31 105 52 9
10 24 18 33 18 9 0 16 4 16 9 0 5 8 12 18 15 29 11 62 32 83 55 11 11 23 21
27 21 4 0 32 24 63 52 31 29 66 60 78 68 12 8 24 22 27 32 3 9 14 20 25 23 10
4 19 11 19 16 0 5 20 29 45 53 25 25 45 48 45 51 0 4 6 13 13 20 29 33 37 45
37 55 0 5 5 10 10 10 6 0 10 7 10 16 0 8 5 12 10 9 6 -3 10 1 10 9 0 9 4 16 8
16 4 0 13 12 19 28 15 36 46 86 56 90 4 2 7 10 7 18 0 8 4 14 9 14 5 0 12 18
16 40 4 22 11 40 16 40 5 0 9 7 9 15 0 8 5 15 10 15 6 0 10 9 10 19 0 24 19
31 86 31 30 0 54 5 54 10 0 6 18 10 40 10 22 0 40 5 40 10 0 6 11 10 25 10 14
0 25 5 25 10 0 6 6 10 12 10 7 0 38 12 68 27 59 30 210 172 210 198 0 8 4 15
9 15 5 0 12 13 16 30 4 17 11 30 16 30 5 0 9 11 9 25 0 14 5 25 10 25 6 0 10
18 10 41 0 24 4 38 10 34 6 -4 10 23 10 74 0 47 -4 81 -10 81 -5 0 -10 18 -10
40 0 22 -4 40 -10 40 -5 0 -10 6 -10 13 0 13 -19 60 -41 100 -7 12 -7 23 -1
30 6 7 13 47 17 90 4 42 11 80 16 83 5 3 9 27 9 55 0 27 5 49 10 49 6 0 10 20
10 45 0 25 5 45 10 45 6 0 10 22 10 49 0 28 4 52 9 56 5 3 13 50 16 105 4 55
11 100 16 100 5 0 9 27 9 60 0 33 4 60 10 60 6 0 10 27 10 61 0 37 4 58 10 54
6 -4 10 19 10 62 0 38 4 73 9 79 6 5 13 89 17 187 4 98 11 180 16 183 11 7 11
281 0 288 -5 3 -12 45 -16 93 -3 48 -11 90 -16 91 -6 2 -10 15 -10 28 0 13 -4
24 -10 24 -5 0 -10 9 -10 20 0 11 -3 20 -7 20 -5 0 -17 19 -28 42 -22 45 -90
118 -112 118 -7 0 -13 5 -13 10 0 6 -9 10 -20 10 -11 0 -20 5 -20 10 0 6 -11
10 -24 10 -14 0 -28 5 -31 10 -3 6 -17 10 -31 10 -15 0 -24 6 -24 15 0 8 5 15
10 15 6 0 10 7 10 15 0 8 5 15 10 15 6 0 10 9 10 20 0 11 5 20 10 20 6 0 10 9
10 19 0 11 4 23 10 26 5 3 12 28 16 55 4 28 10 50 15 50 5 0 9 16 9 35 0 19 5
35 10 35 6 0 10 72 10 195 0 123 -4 195 -10 195 -5 0 -10 15 -10 34 0 19 -4
37 -9 40 -5 4 -12 29 -16 56 -4 28 -11 50 -16 50 -5 0 -9 11 -9 25 0 14 -4 25
-10 25 -5 0 -10 7 -10 15 0 30 -47 65 -85 65 -35 0 -85 -35 -85 -60 0 -5 -5
-10 -11 -10 -7 0 -19 -8 -28 -18 -9 -10 -31 -27 -48 -37 -18 -11 -33 -23 -33
-27 0 -4 -9 -8 -20 -8 -11 0 -20 -4 -20 -9 0 -5 -13 -12 -30 -16 -16 -4 -32
-11 -35 -16 -4 -5 -17 -9 -31 -9 -13 0 -24 -4 -24 -10 0 -5 -11 -10 -24 -10
-14 0 -28 -4 -31 -10 -3 -5 -17 -10 -31 -10 -13 0 -24 -4 -24 -9 0 -5 -35 -12
-77 -16 -43 -3 -88 -11 -100 -17 -12 -6 -36 -7 -55 -3 -18 4 -50 8 -70 8 -21
1 -38 5 -38 10 0 4 -9 7 -19 7 -11 0 -23 5 -26 10 -3 6 -15 10 -26 10 -10 0
-19 5 -19 10 0 6 -9 10 -19 10 -11 0 -21 3 -23 8 -1 4 -21 16 -43 27 -22 11
-47 28 -56 37 -9 10 -21 18 -28 18 -6 0 -11 4 -11 9 0 5 -10 13 -22 17 -13 4
-30 15 -39 25 -9 11 -21 19 -28 19 -6 0 -25 14 -43 30 -17 17 -35 30 -39 30
-4 0 -19 11 -33 25 -14 14 -28 25 -31 25 -4 0 -13 6 -20 13 -30 26 -44 37 -50
37 -3 0 -19 14 -37 30 -17 17 -34 30 -38 30 -4 0 -20 11 -36 25 -16 14 -33 25
-38 25 -5 0 -16 8 -25 18 -9 9 -35 26 -58 37 -24 11 -43 23 -43 28 0 4 -6 7
-13 7 -7 0 -19 9 -27 20 -8 11 -20 20 -26 20 -17 0 -74 33 -74 43 0 4 -9 7
-20 7 -11 0 -20 3 -20 8 0 8 -60 36 -120 54 -22 7 -40 16 -40 20 0 5 -11 8
-25 8 -14 0 -25 5 -25 10 0 6 -14 10 -31 10 -16 0 -28 4 -25 9 5 8 -36 19 -94
24 -14 1 -28 6 -32 11 -9 13 -444 17 -525 6z m108 -2093 c166 -79 229 -107
234 -107 3 0 24 -8 48 -19 23 -10 83 -34 132 -54 647 -254 1212 -341 1651
-252 43 9 110 27 148 41 38 13 75 24 83 24 11 0 13 -87 13 -479 0 -543 10
-491 -94 -491 -71 0 -86 10 -86 56 0 45 -13 76 -51 118 -59 68 -43 66 -640 66
-393 0 -546 -3 -566 -12 -69 -29 -123 -106 -123 -174 0 -46 -22 -55 -127 -52
l-88 3 -7 53 c-10 70 -54 133 -111 161 -42 21 -55 21 -587 21 l-543 0 -44 -26
c-57 -33 -93 -90 -93 -148 0 -54 -16 -66 -89 -66 -88 0 -81 -25 -81 311 l0
299 65 0 c160 0 335 124 544 385 75 94 230 320 252 368 7 15 20 27 29 27 10 0
69 -24 131 -53z m385 -1224 c36 -23 47 -83 34 -187 -25 -194 -137 -328 -321
-385 -48 -15 -481 -15 -528 0 -159 51 -276 172 -310 320 -6 24 -11 83 -11 130
0 80 2 88 26 113 l27 26 506 2 c278 2 517 1 531 -1 14 -2 34 -10 46 -18z
m1614 -8 c46 -49 37 -218 -16 -332 -50 -105 -163 -200 -274 -230 -68 -18 -481
-17 -543 2 -78 23 -145 65 -198 123 -84 92 -116 188 -113 345 1 56 5 71 24 92
l23 25 537 0 537 0 23 -25z m-2856 -217 c2 -7 12 -42 22 -78 48 -173 185 -311
363 -367 47 -15 94 -18 306 -18 216 0 258 3 309 19 186 58 317 197 366 384
l17 67 110 3 109 3 17 -67 c28 -104 72 -182 146 -254 68 -68 116 -98 211 -132
46 -17 89 -21 270 -25 139 -4 241 -1 289 6 196 31 367 178 429 372 7 19 12 45
12 56 0 35 23 44 107 41 l78 -3 0 -285 c-1 -293 -8 -380 -46 -530 -106 -412
-348 -755 -695 -986 -393 -260 -879 -344 -1329 -229 -168 44 -285 92 -450 188
-221 129 -449 358 -578 583 -113 196 -179 384 -212 604 -15 98 -22 640 -8 653
12 13 153 8 157 -5z m-284 -252 c0 -233 22 -432 66 -604 14 -51 22 -97 20
-101 -5 -8 -118 10 -173 27 -118 37 -233 134 -286 241 -30 61 -32 73 -32 166
0 93 2 105 33 167 52 107 170 203 297 243 79 25 75 33 75 -139z m3689 106
c101 -50 198 -154 235 -255 29 -76 19 -214 -19 -292 -67 -133 -236 -246 -385
-257 -52 -4 -51 -9 -20 107 36 136 50 261 57 503 l6 234 36 -7 c20 -4 60 -19
90 -33z m-1917 -2034 c64 0 145 3 182 7 l66 7 0 -124 c0 -144 -9 -178 -59
-231 -60 -63 -171 -84 -278 -52 -60 18 -116 74 -132 132 -12 43 -15 256 -3
267 4 4 30 5 58 1 29 -3 103 -6 166 -7z m-338 -203 c12 -159 84 -253 229 -299
16 -5 17 -35 17 -451 l0 -445 -472 2 -473 3 -3 209 c-1 134 -6 214 -13 223
-14 17 -75 17 -86 1 -4 -7 -10 -107 -13 -223 l-5 -210 -240 -5 c-200 -5 -246
-9 -279 -23 -59 -28 -136 -105 -162 -165 -24 -52 -24 -55 -24 -437 0 -224 -4
-386 -9 -390 -5 -3 -64 6 -130 20 -133 28 -156 25 -167 -22 -12 -44 25 -65
161 -92 66 -13 126 -28 133 -34 9 -7 12 -104 10 -446 l-3 -436 -180 -3 c-107
-2 -204 2 -240 8 -191 37 -318 217 -280 400 11 54 106 378 169 575 9 28 20 64
25 80 5 17 26 84 46 150 20 66 47 154 60 195 38 125 95 308 136 445 87 283
143 444 181 525 72 150 174 298 295 426 213 227 545 411 845 469 149 28 191
33 329 34 l136 1 7 -85z m1046 71 c186 -27 324 -69 486 -146 369 -176 634
-452 804 -834 29 -65 75 -207 180 -556 38 -127 99 -326 110 -360 8 -24 32
-103 80 -260 12 -41 28 -93 35 -115 7 -22 29 -94 50 -160 44 -145 93 -305 110
-360 7 -22 18 -66 25 -97 22 -111 -22 -233 -117 -317 -87 -78 -114 -84 -370
-89 l-223 -4 0 441 0 441 23 9 c12 5 74 19 137 32 63 12 123 29 133 37 35 31
11 92 -36 92 -12 0 -65 -9 -117 -20 -52 -11 -105 -20 -117 -20 l-23 0 0 380
c0 363 -1 382 -21 436 -27 73 -87 138 -158 172 -55 26 -61 27 -291 32 l-235 5
-3 209 c-1 134 -6 214 -13 223 -14 17 -75 17 -86 1 -4 -7 -10 -107 -13 -223
l-5 -210 -515 0 -515 0 -3 437 -2 438 22 4 c13 3 44 7 70 10 132 15 236 137
245 289 3 40 6 78 8 85 6 17 221 16 345 -2z m-4498 -2693 c-1 -472 -4 -568
-17 -606 -47 -140 -161 -249 -303 -293 -67 -20 -716 -20 -782 0 -144 44 -262
162 -306 306 -11 36 -14 159 -14 603 l0 557 711 -2 712 -3 -1 -562z m278 367
c0 -5 14 -10 30 -10 17 0 30 -4 30 -9 0 -5 11 -12 25 -15 14 -4 25 -11 25 -16
0 -6 9 -10 20 -10 11 0 20 -4 20 -8 0 -4 20 -29 45 -56 25 -26 48 -61 52 -77
3 -16 9 -26 14 -23 5 3 9 -11 9 -30 0 -20 5 -36 10 -36 6 0 10 -30 10 -70 0
-40 -4 -70 -10 -70 -5 0 -10 -13 -10 -30 0 -16 -4 -30 -9 -30 -5 0 -11 -12
-14 -27 -6 -32 -88 -122 -129 -142 -16 -8 -28 -18 -28 -23 0 -4 -7 -8 -15 -8
-8 0 -15 -4 -15 -10 0 -5 -15 -10 -33 -10 -19 0 -36 -3 -40 -6 -3 -3 -33 -6
-66 -7 l-61 -2 0 368 0 367 70 0 c40 0 70 -4 70 -10z"/>
<path d="M5344 7494 c-54 -26 -73 -94 -44 -150 29 -54 32 -54 519 -54 l450 0
35 34 c48 45 50 100 7 148 l-29 33 -454 2 c-393 3 -457 1 -484 -13z"/>
<path d="M6904 7496 c-18 -8 -38 -28 -47 -49 -21 -43 -21 -51 -1 -93 31 -65
25 -64 523 -64 l450 0 36 31 c31 27 35 37 35 78 0 40 -5 52 -31 77 l-30 29
-452 2 c-363 2 -458 0 -483 -11z"/>
<path d="M6590 6570 c-11 -11 -20 -25 -20 -31 0 -6 21 -54 46 -107 44 -93 114
-287 114 -317 0 -30 -41 -38 -167 -32 -107 4 -126 3 -145 -12 -26 -22 -19 -64
14 -82 27 -15 208 -24 283 -14 65 8 108 40 121 90 15 60 -42 252 -126 424 -49
100 -80 121 -120 81z"/>
<path d="M5995 5626 c-47 -47 -26 -74 86 -110 186 -60 292 -76 504 -75 224 0
328 15 524 77 102 32 126 57 94 100 -25 33 -31 33 -163 -5 -146 -42 -198 -52
-330 -62 -120 -10 -314 0 -405 20 -62 14 -244 64 -267 74 -11 4 -26 -2 -43
-19z"/>
<path d="M335 7240 c-3 -5 -20 -10 -37 -10 -24 0 -42 -11 -79 -50 -27 -28 -49
-59 -49 -70 0 -11 -4 -20 -10 -20 -7 0 -10 -478 -10 -1415 0 -937 3 -1415 10
-1415 6 0 10 -10 10 -23 0 -26 71 -107 94 -107 9 0 16 -4 16 -10 0 -7 580 -10
1720 -10 1001 0 1720 4 1720 9 0 5 10 12 23 15 32 9 60 36 80 78 16 34 17 128
15 1480 l-3 1444 -36 34 c-43 42 -72 60 -98 60 -11 0 -23 5 -26 10 -4 7 -572
10 -1670 10 -1098 0 -1666 -3 -1670 -10z m3339 -141 c37 -17 47 -54 44 -160
l-3 -94 -1712 -3 -1712 -2 -7 36 c-4 19 -4 70 -2 112 5 67 8 78 32 99 l27 23
1654 0 c1208 0 1661 -3 1679 -11z m46 -1594 l0 -1226 -25 -24 -24 -25 -1668 0
c-1295 1 -1672 3 -1684 13 -39 30 -39 17 -39 1271 l0 1216 1720 0 1720 0 0
-1225z"/>
<path d="M452 7034 c-16 -11 -22 -25 -22 -53 0 -49 24 -71 79 -71 38 0 43 3
56 35 32 76 -45 137 -113 89z"/>
<path d="M661 7032 c-40 -32 -24 -120 22 -124 66 -4 97 18 97 69 0 63 -70 96
-119 55z"/>
<path d="M870 7032 c-15 -12 -22 -29 -23 -54 -1 -50 17 -68 68 -68 50 0 75 22
75 68 0 62 -71 94 -120 54z"/>
<path d="M2145 6348 c-34 -106 -150 -460 -245 -748 -67 -201 -143 -434 -171
-518 -28 -84 -49 -158 -47 -164 6 -18 160 -70 169 -57 4 6 42 118 84 248 43
130 147 445 231 699 85 255 154 472 154 482 0 18 -15 26 -103 54 -58 19 -66
20 -72 4z"/>
<path d="M1469 5967 c-25 -12 -70 -33 -100 -46 -29 -14 -105 -49 -167 -78 -62
-29 -115 -53 -116 -53 -2 0 -46 -20 -97 -43 -52 -24 -131 -61 -177 -82 l-83
-38 3 -115 c2 -90 6 -117 18 -123 23 -13 209 -99 214 -99 2 0 61 -27 131 -60
70 -33 129 -60 131 -60 2 0 34 -14 71 -31 188 -87 217 -99 230 -99 11 0 13 22
11 118 l-3 117 -35 18 c-48 24 -249 117 -254 117 -13 0 -195 91 -201 100 -4 6
20 22 62 41 37 17 88 40 113 51 25 11 74 34 110 50 36 17 98 45 138 64 l72 33
0 121 c0 134 2 131 -71 97z"/>
<path d="M2470 5985 c-1 -3 -1 -52 -1 -110 0 -58 0 -111 1 -119 0 -7 15 -19
33 -27 17 -7 73 -31 122 -55 50 -23 113 -52 140 -64 28 -12 78 -35 113 -51 35
-16 67 -29 72 -29 5 0 12 -5 15 -10 5 -9 -107 -67 -260 -135 -38 -17 -127 -56
-187 -84 -27 -12 -48 -26 -48 -31 -4 -92 1 -225 7 -227 8 -3 257 107 471 208
46 21 85 39 87 39 4 0 196 88 215 99 12 6 16 34 18 125 l3 116 -58 26 c-32 15
-96 44 -141 65 -46 22 -85 39 -87 39 -2 0 -60 27 -130 60 -70 33 -129 60 -131
60 -2 0 -39 16 -81 36 -148 69 -173 79 -173 69z"/>
</g>
</svg>
